<svg width="64" height="64" viewBox="0 0 64 64" fill="none" xmlns="http://www.w3.org/2000/svg">
<rect width="64" height="64" rx="12" fill="#3F58BB"/>
<path d="M30.3553 43.1962C29.702 43.1962 29.0673 43.1029 28.4513 42.9162C27.854 42.7296 27.3127 42.4589 26.8273 42.1042C26.342 41.7309 25.9593 41.2736 25.6793 40.7322C25.3993 40.1722 25.2593 39.5189 25.2593 38.7722C25.2593 37.8202 25.446 37.0456 25.8193 36.4482C26.1927 35.8322 26.6967 35.3656 27.3313 35.0482C27.9847 34.7309 28.722 34.5162 29.5433 34.4042C30.3647 34.2736 31.2233 34.2082 32.1193 34.2082H35.0033C35.0033 33.5549 34.9007 32.9949 34.6953 32.5282C34.49 32.0429 34.1633 31.6602 33.7153 31.3802C33.286 31.1002 32.726 30.9602 32.0353 30.9602C31.5873 30.9602 31.1673 31.0162 30.7753 31.1282C30.402 31.2216 30.0753 31.3802 29.7953 31.6042C29.534 31.8096 29.3473 32.0802 29.2353 32.4162H25.7353C25.866 31.6509 26.1273 30.9976 26.5193 30.4562C26.93 29.8962 27.4247 29.4389 28.0033 29.0842C28.6007 28.7296 29.254 28.4682 29.9633 28.3002C30.6727 28.1136 31.3913 28.0202 32.1193 28.0202C33.5567 28.0202 34.7233 28.3002 35.6193 28.8602C36.534 29.4202 37.206 30.2229 37.6353 31.2682C38.0647 32.3136 38.2793 33.5736 38.2793 35.0482V43.0002H35.2553L35.1713 41.2082C34.7607 41.7309 34.2847 42.1416 33.7433 42.4402C33.2207 42.7202 32.67 42.9162 32.0913 43.0282C31.5127 43.1402 30.934 43.1962 30.3553 43.1962ZM31.1393 40.4242C31.9047 40.4242 32.5767 40.2842 33.1553 40.0042C33.734 39.7242 34.1913 39.3322 34.5273 38.8282C34.8633 38.3242 35.0313 37.7362 35.0313 37.0642V36.6162H32.3713C31.886 36.6162 31.4193 36.6349 30.9713 36.6722C30.5233 36.6909 30.122 36.7656 29.7673 36.8962C29.4313 37.0082 29.1607 37.1856 28.9553 37.4282C28.75 37.6709 28.6473 38.0162 28.6473 38.4642C28.6473 38.8936 28.7593 39.2576 28.9833 39.5562C29.2073 39.8362 29.506 40.0509 29.8793 40.2002C30.2713 40.3496 30.6913 40.4242 31.1393 40.4242Z" fill="white"/>
<path d="M22 25C22 13 42 13 42 25" stroke="white" stroke-width="2.5" stroke-linecap="round"/>
<path d="M32.8021 24.8398L31.0632 23.8124L36.7766 13.3472L39.8356 14.9197L32.8021 24.8398Z" fill="#FF4852"/>
<rect x="23" y="47" width="19" height="2.5" rx="1" fill="#FF4852"/>
</svg>
