<svg width="96" height="96" viewBox="0 0 96 96" fill="none" xmlns="http://www.w3.org/2000/svg">
<g filter="url(#loginAuthShadow)">
<rect x="16" y="8" width="64" height="64" rx="12" fill="#3F58BB"/>
</g>
<rect x="16" y="8" width="64" height="64" rx="12" fill="#3F58BB"/>
<path d="M46.3553 51.1962C45.702 51.1962 45.0673 51.1029 44.4513 50.9162C43.854 50.7296 43.3127 50.4589 42.8273 50.1042C42.342 49.7309 41.9593 49.2736 41.6793 48.7322C41.3993 48.1722 41.2593 47.5189 41.2593 46.7722C41.2593 45.8202 41.446 45.0456 41.8193 44.4482C42.1927 43.8322 42.6967 43.3656 43.3313 43.0482C43.9847 42.7309 44.722 42.5162 45.5433 42.4042C46.3647 42.2736 47.2233 42.2082 48.1193 42.2082H51.0033C51.0033 41.5549 50.9007 40.9949 50.6953 40.5282C50.49 40.0429 50.1633 39.6602 49.7153 39.3802C49.286 39.1002 48.726 38.9602 48.0353 38.9602C47.5873 38.9602 47.1673 39.0162 46.7753 39.1282C46.402 39.2216 46.0753 39.3802 45.7953 39.6042C45.534 39.8096 45.3473 40.0802 45.2353 40.4162H41.7353C41.866 39.6509 42.1273 38.9976 42.5193 38.4562C42.93 37.8962 43.4247 37.4389 44.0033 37.0842C44.6007 36.7296 45.254 36.4682 45.9633 36.3002C46.6727 36.1136 47.3913 36.0202 48.1193 36.0202C49.5567 36.0202 50.7233 36.3002 51.6193 36.8602C52.534 37.4202 53.206 38.2229 53.6353 39.2682C54.0647 40.3136 54.2793 41.5736 54.2793 43.0482V51.0002H51.2553L51.1713 49.2082C50.7607 49.7309 50.2847 50.1416 49.7433 50.4402C49.2207 50.7202 48.67 50.9162 48.0913 51.0282C47.5127 51.1402 46.934 51.1962 46.3553 51.1962ZM47.1393 48.4242C47.9047 48.4242 48.5767 48.2842 49.1553 48.0042C49.734 47.7242 50.1913 47.3322 50.5273 46.8282C50.8633 46.3242 51.0313 45.7362 51.0313 45.0642V44.6162H48.3713C47.886 44.6162 47.4193 44.6349 46.9713 44.6722C46.5233 44.6909 46.122 44.7656 45.7673 44.8962C45.4313 45.0082 45.1607 45.1856 44.9553 45.4282C44.75 45.6709 44.6473 46.0162 44.6473 46.4642C44.6473 46.8936 44.7593 47.2576 44.9833 47.5562C45.2073 47.8362 45.506 48.0509 45.8793 48.2002C46.2713 48.3496 46.6913 48.4242 47.1393 48.4242Z" fill="white"/>
<path d="M38 33C38 21 58 21 58 33" stroke="white" stroke-width="2.5" stroke-linecap="round"/>
<path d="M48.8021 32.8398L47.0632 31.8124L52.7766 21.3472L55.8356 22.9197L48.8021 32.8398Z" fill="#FF4852"/>
<rect x="39" y="55" width="19" height="2.5" rx="1" fill="#FF4852"/>
<defs>
<filter id="loginAuthShadow" x="0" y="0" width="96" height="96" filterUnits="userSpaceOnUse" color-interpolation-filters="sRGB">
<feFlood flood-opacity="0" result="BackgroundImageFix"/>
<feColorMatrix in="SourceAlpha" type="matrix" values="0 0 0 0 0 0 0 0 0 0 0 0 0 0 0 0 0 0 127 0" result="hardAlpha"/>
<feOffset dy="8"/>
<feGaussianBlur stdDeviation="8"/>
<feComposite in2="hardAlpha" operator="out"/>
<feColorMatrix type="matrix" values="0 0 0 0 0.388235 0 0 0 0 0.4 0 0 0 0 0.945098 0 0 0 0.25098 0"/>
<feBlend mode="normal" in2="BackgroundImageFix" result="effect1_dropShadow"/>
</filter>
</defs>
</svg>
