<svg viewBox="0 0 16 16" xmlns="http://www.w3.org/2000/svg" aria-hidden="true" focusable="false">
  <path d="M10.0004 3.33273L12.6674 5.99935M14.1168 4.54096C14.4693 4.18858 14.6673 3.71062 14.6674 3.21222C14.6675 2.71382 14.4695 2.23581 14.1171 1.88334C13.7647 1.53087 13.2867 1.33283 12.7882 1.33276C12.2898 1.3327 11.8117 1.53063 11.4592 1.88301L2.56107 10.7822C2.40627 10.9365 2.29179 11.1265 2.22771 11.3355L1.34697 14.2368C1.32973 14.2945 1.32843 14.3557 1.3432 14.414C1.35797 14.4724 1.38825 14.5256 1.43084 14.5681C1.47342 14.6106 1.52673 14.6408 1.58509 14.6555C1.64346 14.6702 1.7047 14.6688 1.76234 14.6515L4.66459 13.7715C4.87339 13.708 5.06341 13.5942 5.21798 13.4401L14.1168 4.54096Z" stroke="#FCCC6B" stroke-width="2" stroke-linecap="round" fill="none"/>
</svg>
