<svg viewBox="0 0 26 26" xmlns="http://www.w3.org/2000/svg" aria-hidden="true" focusable="false">
  <path d="M5.70734 4.33151C5.51639 4.66147 5.4159 5.03596 5.41602 5.41717V20.5828C5.4159 20.964 5.51639 21.3385 5.70734 21.6685C5.89829 21.9984 6.17294 22.2722 6.50355 22.4621C6.83416 22.652 7.20903 22.7513 7.5903 22.75C7.97158 22.7487 8.34577 22.6468 8.67508 22.4547L21.6767 14.8719C22.0044 14.681 22.2762 14.4075 22.4651 14.0786C22.6539 13.7498 22.7531 13.3772 22.7528 12.998C22.7525 12.6188 22.6526 12.2463 22.4632 11.9178C22.2738 11.5893 22.0015 11.3163 21.6734 11.126L8.67508 3.54529C8.34577 3.35316 7.97158 3.25131 7.5903 3.25001C7.20903 3.24872 6.83416 3.34803 6.50355 3.53792C6.17294 3.72781 5.89829 4.00155 5.70734 4.33151Z" fill="#FFF9E9"/>
</svg>
